<?xml version="1.0" encoding="utf-8"?>
<!-- Generator: Adobe Illustrator 22.0.0, SVG Export Plug-In . SVG Version: 6.00 Build 0)  -->
<svg version="1.1" id="Calque_1" xmlns="http://www.w3.org/2000/svg" xmlns:xlink="http://www.w3.org/1999/xlink" x="0px" y="0px"
	 viewBox="0 0 425.2 425.2" style="enable-background:new 0 0 425.2 425.2;" xml:space="preserve">
<style type="text/css">
	.st0{fill:#EE7B22;stroke:#010101;stroke-width:0.25;stroke-miterlimit:10;}
	.st1{opacity:0.53;fill:#010101;stroke:#010101;stroke-width:0.25;stroke-miterlimit:10;}
	.st2{fill:#FFFFFF;}
	.st3{opacity:0.14;fill:#010101;stroke:#010101;stroke-width:0.25;stroke-miterlimit:10;}
	.st4{opacity:0.78;fill:#FFFFFF;}
	.st5{opacity:0.9;fill:#FFFFFF;}
	.st6{opacity:0.25;fill:#FFFFFF;}
	.st7{opacity:0.65;fill:#FFFFFF;}
	.st8{opacity:0.86;fill:#FFFFFF;}
	.st9{opacity:0.16;fill:#FFFFFF;}
	.st10{opacity:4.000000e-02;fill:#010101;}
</style>
<path class="st0" d="M290.8,385.8H134.3c-44.6,0-80.7-36.1-80.7-80.7v-185c0-44.6,36.1-80.7,80.7-80.7h156.5
	c44.6,0,80.7,36.1,80.7,80.7v185C371.6,349.7,335.4,385.8,290.8,385.8z"/>
<path class="st1" d="M165.4,345.8h3l3.1-0.6l6.9-4.5l6.8-4.5l-6.1-10.4l-11.5-18.6l-4.3-8.6l-4-8.8l-4.3-7.3l-4-9.3l-2.6-6.1l-2.4-6
	l-3.4-8.9l-2.1-5.9l-1.8-5.1c0,0,75.4-20.5,149.1,0l-1.3,3l-1.6,5.3l-5.1,12.9l-4,9.6c0,0-24.6,53.2-33.8,62.3l-0.3,0.4l13.9,11.3
	h1.5h3.6l3.3-4.2c0,0,23.1-30.8,32.6-52.8l10.1,4.6l2.8,0.6l4.8,0.6l2.9-0.6l2.1-1.3l2.5-2.2l2.5-3.1l2.3-4.3l1.7-4.3l0.8-2.9
	l0.8-3.8l0.9-6.4v-5.5v-4.3l0.6-4l1.3-5.4l3.5-6.6l3.1-4.5l3.6-4.9l3-4.9l1.6-2.8c0,0,6.3-20.9-12.9-28.6l-2.1-0.8l-1.7-0.3
	l-3.5-0.5h-1.6h-0.4l-0.1-5.2l0.1-4.5l0.2-5.8l-0.1-4.3l0.2-8.2l0.1-8.5l-0.6-8.8l-1-5.3l-2.8-9l-3.6-8.3c0,0-16.2-36.6-53.8-47
	l-6.8-1.9l-8.1-1.5H239h-59.5l-9,1.4l-6.8,1.9l-9.3,3.3l-9.4,4.3c0,0-37.1,16.5-43.8,67.5l-0.4,8.1v5.6v24.4v1.8l-4.6-0.1l-5.2,1.3
	l-4.7,2.7l-2,2.1l-2.7,3.2l-1.5,2.6l-0.9,2.6l-1,4.4v4.3l0.5,4.3l0.8,2.7l1.3,2.6l3.9,6.6l2.3,2.7l2.8,3.9l1.8,3.8l1.4,2.9l1,3
	l0.8,2.8c0,0,0.4,4.3,0.4,4.6s0.3,4.4,0.3,4.4l-0.1,4l0.3,4.3l1.1,6.8l2,5.2l1.4,2.6l1.5,3.3l2.1,2.7l1.7,2.1l2.2,1.8l3.2,1.8
	l3.4-0.2l4.7-1.3l4.2-1.3l5.3-1.8l1.3-1l0.7-0.3l4,7.3C134.5,296.3,149,326.9,165.4,345.8z"/>
<path class="st2" d="M141.8,110.6c0,0,9.4-13.6,39.1-20.9h57.3c0,0,22.9,3,39.9,21.5c0,0-29.4-10.1-47.4-11.9S187,99.3,187,99.3
	S149.6,106.6,141.8,110.6z"/>
<path class="st3" d="M135,232.5c0,0,74.6-17.8,148.9,0l7.4-27.1l-1.3-1.6l-5.1-2.4c0,0-96.6-20.7-157.3,3.3L135,232.5z"/>
<path class="st4" d="M252.6,323.4c0,0,1.3-7.1,5.3-7.3C261.9,316,252.6,323.4,252.6,323.4z"/>
<path class="st5" d="M158.2,325.1c0,0,6.4,3.3,5.4,7.2C162.5,336.1,158.2,325.1,158.2,325.1z"/>
<path class="st5" d="M333.7,207.2c0,0,1.9,7-1.7,8.8C328.4,217.8,333.7,207.2,333.7,207.2z"/>
<path class="st6" d="M260.7,309.9c4.2-13.4,34.6-54.5,34.6-54.5c-1.6,22.9-34,54.4-34,54.4L260.7,309.9z"/>
<path class="st7" d="M250.3,79.7l-0.9,0.2c-7.6,1.2-84.8,0-84.8,0s57.9-5,84.8-0.4L250.3,79.7z"/>
<path class="st8" d="M117.6,210.2c5,3.9,20.6,52.6,20.6,52.6L117.6,210.2z"/>
<polygon class="st9" points="270.7,196.2 233.7,190.5 236.8,107.6 273.8,113.8 "/>
<path class="st10" d="M121.5,266.6c-25.2-6.8-22.7-69.7-22.7-69.7L121.5,266.6z"/>
</svg>
